<mxfile host="65bd71144e">
    <diagram id="6XEgK_1qHVvwqIfhTL7Q" name="Page-1">
        <mxGraphModel dx="2367" dy="1870" grid="1" gridSize="10" guides="1" tooltips="1" connect="1" arrows="1" fold="1" page="1" pageScale="1" pageWidth="827" pageHeight="1169" math="0" shadow="0">
            <root>
                <mxCell id="0"/>
                <mxCell id="1" parent="0"/>
                <mxCell id="4" value="Move()" style="shape=folder;align=center;verticalAlign=middle;fontStyle=0;tabWidth=100;tabHeight=30;tabPosition=left;html=1;boundedLbl=1;labelInHeader=1;rounded=1;absoluteArcSize=1;arcSize=10;" vertex="1" parent="1">
                    <mxGeometry x="220" y="50" width="1240" height="2230" as="geometry"/>
                </mxCell>
                <mxCell id="68" value="" style="edgeStyle=none;html=1;" edge="1" parent="1" source="2" target="65">
                    <mxGeometry relative="1" as="geometry"/>
                </mxCell>
                <mxCell id="2" value="" style="ellipse;fillColor=#000000;strokeColor=#FF0000;labelBorderColor=none;" parent="1" vertex="1">
                    <mxGeometry x="305" y="120" width="30" height="30" as="geometry"/>
                </mxCell>
                <mxCell id="24" value="" style="edgeStyle=none;html=1;entryX=0;entryY=0.5;entryDx=0;entryDy=0;" parent="1" source="19" target="103" edge="1">
                    <mxGeometry relative="1" as="geometry">
                        <mxPoint x="440" y="40" as="targetPoint"/>
                    </mxGeometry>
                </mxCell>
                <mxCell id="25" value="[All the knowledge&lt;br&gt;is acquired] || [Energy &lt;br&gt;points &amp;lt;= 40%]" style="edgeLabel;html=1;align=center;verticalAlign=middle;resizable=0;points=[];" parent="24" vertex="1" connectable="0">
                    <mxGeometry x="-0.8093" y="-1" relative="1" as="geometry">
                        <mxPoint x="35" y="-31" as="offset"/>
                    </mxGeometry>
                </mxCell>
                <mxCell id="19" value="" style="rhombus;whiteSpace=wrap;html=1;rounded=1;arcSize=10;dashed=0;" parent="1" vertex="1">
                    <mxGeometry x="280" y="280" width="80" height="80" as="geometry"/>
                </mxCell>
                <mxCell id="38" value="" style="edgeStyle=none;html=1;entryX=0.5;entryY=0;entryDx=0;entryDy=0;exitX=0.5;exitY=1;exitDx=0;exitDy=0;" edge="1" parent="1" source="19" target="120">
                    <mxGeometry relative="1" as="geometry">
                        <mxPoint x="320" y="420" as="targetPoint"/>
                        <mxPoint x="320" y="240.00000000000023" as="sourcePoint"/>
                    </mxGeometry>
                </mxCell>
                <mxCell id="42" value="[Energy points &amp;gt; 40%]" style="edgeLabel;html=1;align=center;verticalAlign=middle;resizable=0;points=[];" vertex="1" connectable="0" parent="38">
                    <mxGeometry x="-0.6064" y="-2" relative="1" as="geometry">
                        <mxPoint x="62" y="-6" as="offset"/>
                    </mxGeometry>
                </mxCell>
                <mxCell id="59" value="" style="edgeStyle=none;html=1;" edge="1" parent="1">
                    <mxGeometry relative="1" as="geometry"/>
                </mxCell>
                <mxCell id="69" value="" style="edgeStyle=none;html=1;" edge="1" parent="1" source="65" target="19">
                    <mxGeometry relative="1" as="geometry"/>
                </mxCell>
                <mxCell id="65" value="Random number from&lt;br&gt;0 to 7 to determine&lt;br&gt;destination" style="html=1;align=center;verticalAlign=middle;rounded=1;absoluteArcSize=1;arcSize=10;dashed=0;" vertex="1" parent="1">
                    <mxGeometry x="250" y="180" width="140" height="60" as="geometry"/>
                </mxCell>
                <mxCell id="124" value="" style="edgeStyle=none;html=1;" edge="1" parent="1" source="103" target="122">
                    <mxGeometry relative="1" as="geometry"/>
                </mxCell>
                <mxCell id="103" value="Calculate the closest &lt;br&gt;destination to the base" style="html=1;align=center;verticalAlign=middle;rounded=1;absoluteArcSize=1;arcSize=10;dashed=0;" vertex="1" parent="1">
                    <mxGeometry x="470" y="300" width="140" height="40" as="geometry"/>
                </mxCell>
                <mxCell id="123" value="" style="edgeStyle=none;html=1;" edge="1" parent="1" source="120" target="122">
                    <mxGeometry relative="1" as="geometry"/>
                </mxCell>
                <mxCell id="120" value="Chose a random&lt;br&gt;destination" style="html=1;align=center;verticalAlign=middle;rounded=1;absoluteArcSize=1;arcSize=10;dashed=0;" vertex="1" parent="1">
                    <mxGeometry x="250" y="440" width="140" height="40" as="geometry"/>
                </mxCell>
                <mxCell id="171" style="edgeStyle=none;html=1;exitX=0.5;exitY=1;exitDx=0;exitDy=0;entryX=0;entryY=0;entryDx=50;entryDy=0;entryPerimeter=0;" edge="1" parent="1" source="122" target="125">
                    <mxGeometry relative="1" as="geometry"/>
                </mxCell>
                <mxCell id="122" value="" style="rhombus;whiteSpace=wrap;html=1;rounded=1;arcSize=10;dashed=0;" vertex="1" parent="1">
                    <mxGeometry x="500" y="420" width="80" height="80" as="geometry"/>
                </mxCell>
                <mxCell id="177" value="" style="edgeStyle=none;html=1;" edge="1" parent="1" source="125" target="176">
                    <mxGeometry relative="1" as="geometry"/>
                </mxCell>
                <mxCell id="125" value="Steps()" style="shape=folder;align=center;verticalAlign=middle;fontStyle=0;tabWidth=100;tabHeight=30;tabPosition=left;html=1;boundedLbl=1;labelInHeader=1;rounded=1;absoluteArcSize=1;arcSize=10;" vertex="1" parent="1">
                    <mxGeometry x="490" y="520" width="951" height="1690" as="geometry"/>
                </mxCell>
                <mxCell id="129" value="" style="edgeStyle=none;html=1;" edge="1" parent="1" source="127" target="128">
                    <mxGeometry relative="1" as="geometry"/>
                </mxCell>
                <mxCell id="127" value="" style="ellipse;fillColor=#000000;strokeColor=#FF0000;labelBorderColor=none;" vertex="1" parent="1">
                    <mxGeometry x="706" y="560" width="30" height="30" as="geometry"/>
                </mxCell>
                <mxCell id="173" value="" style="edgeStyle=none;html=1;" edge="1" parent="1" source="128" target="172">
                    <mxGeometry relative="1" as="geometry"/>
                </mxCell>
                <mxCell id="128" value="i = 0" style="html=1;align=center;verticalAlign=middle;rounded=1;absoluteArcSize=1;arcSize=10;dashed=0;" vertex="1" parent="1">
                    <mxGeometry x="651" y="620" width="140" height="40" as="geometry"/>
                </mxCell>
                <mxCell id="143" value="" style="edgeStyle=none;html=1;" edge="1" parent="1" source="130" target="142">
                    <mxGeometry relative="1" as="geometry"/>
                </mxCell>
                <mxCell id="144" value="[Next Tile is not&lt;br&gt;an obstacle]" style="edgeLabel;html=1;align=center;verticalAlign=middle;resizable=0;points=[];" vertex="1" connectable="0" parent="143">
                    <mxGeometry x="-0.4179" y="1" relative="1" as="geometry">
                        <mxPoint x="39" y="-8" as="offset"/>
                    </mxGeometry>
                </mxCell>
                <mxCell id="165" style="edgeStyle=none;html=1;exitX=0;exitY=0.5;exitDx=0;exitDy=0;entryX=1;entryY=0.5;entryDx=0;entryDy=0;" edge="1" parent="1" source="130" target="163">
                    <mxGeometry relative="1" as="geometry">
                        <Array as="points">
                            <mxPoint x="681" y="1035"/>
                        </Array>
                    </mxGeometry>
                </mxCell>
                <mxCell id="166" value="[Next tile is an&lt;br&gt;obstacle]" style="edgeLabel;html=1;align=center;verticalAlign=middle;resizable=0;points=[];" vertex="1" connectable="0" parent="165">
                    <mxGeometry x="-0.7519" y="-1" relative="1" as="geometry">
                        <mxPoint x="-39" y="-17" as="offset"/>
                    </mxGeometry>
                </mxCell>
                <mxCell id="130" value="" style="rhombus;whiteSpace=wrap;html=1;rounded=1;arcSize=10;dashed=0;" vertex="1" parent="1">
                    <mxGeometry x="681" y="905" width="80" height="80" as="geometry"/>
                </mxCell>
                <mxCell id="146" value="" style="edgeStyle=none;html=1;entryX=0;entryY=0;entryDx=0;entryDy=30;entryPerimeter=0;" edge="1" parent="1" source="142" target="53">
                    <mxGeometry relative="1" as="geometry">
                        <mxPoint x="821" y="1085" as="targetPoint"/>
                    </mxGeometry>
                </mxCell>
                <mxCell id="147" value="[Next tile is an&lt;br&gt;individual]" style="edgeLabel;html=1;align=center;verticalAlign=middle;resizable=0;points=[];" connectable="0" vertex="1" parent="146">
                    <mxGeometry x="-0.4778" y="2" relative="1" as="geometry">
                        <mxPoint x="5" y="-18" as="offset"/>
                    </mxGeometry>
                </mxCell>
                <mxCell id="149" value="" style="edgeStyle=none;html=1;" edge="1" parent="1" source="142" target="148">
                    <mxGeometry relative="1" as="geometry"/>
                </mxCell>
                <mxCell id="150" value="[Next tile is empty]" style="edgeLabel;html=1;align=center;verticalAlign=middle;resizable=0;points=[];" vertex="1" connectable="0" parent="149">
                    <mxGeometry x="-0.6377" y="-1" relative="1" as="geometry">
                        <mxPoint x="51" y="-7" as="offset"/>
                    </mxGeometry>
                </mxCell>
                <mxCell id="142" value="" style="rhombus;whiteSpace=wrap;html=1;rounded=1;arcSize=10;dashed=0;" vertex="1" parent="1">
                    <mxGeometry x="681" y="1045" width="80" height="80" as="geometry"/>
                </mxCell>
                <mxCell id="154" value="" style="edgeStyle=none;html=1;" edge="1" parent="1" source="148" target="153">
                    <mxGeometry relative="1" as="geometry"/>
                </mxCell>
                <mxCell id="148" value="Current tile is now the next tile" style="whiteSpace=wrap;html=1;rounded=1;arcSize=10;dashed=0;" vertex="1" parent="1">
                    <mxGeometry x="661" y="1185" width="120" height="60" as="geometry"/>
                </mxCell>
                <mxCell id="174" style="edgeStyle=none;html=1;exitX=0.5;exitY=1;exitDx=0;exitDy=0;entryX=1;entryY=0.5;entryDx=0;entryDy=0;" edge="1" parent="1" source="153" target="172">
                    <mxGeometry relative="1" as="geometry">
                        <Array as="points">
                            <mxPoint x="721" y="2200"/>
                            <mxPoint x="1420" y="2200"/>
                            <mxPoint x="1420" y="730"/>
                        </Array>
                    </mxGeometry>
                </mxCell>
                <mxCell id="153" value="i += 1" style="whiteSpace=wrap;html=1;rounded=1;arcSize=10;dashed=0;" vertex="1" parent="1">
                    <mxGeometry x="661" y="1750" width="120" height="60" as="geometry"/>
                </mxCell>
                <mxCell id="157" value="" style="edgeStyle=none;html=1;" edge="1" parent="1" source="155" target="130">
                    <mxGeometry relative="1" as="geometry"/>
                </mxCell>
                <mxCell id="159" value="[ i &amp;lt; 3]" style="edgeLabel;html=1;align=center;verticalAlign=middle;resizable=0;points=[];" vertex="1" connectable="0" parent="157">
                    <mxGeometry x="-0.792" relative="1" as="geometry">
                        <mxPoint x="20" y="-3" as="offset"/>
                    </mxGeometry>
                </mxCell>
                <mxCell id="164" value="" style="edgeStyle=none;html=1;" edge="1" parent="1" source="155" target="163">
                    <mxGeometry relative="1" as="geometry">
                        <Array as="points">
                            <mxPoint x="596" y="835"/>
                        </Array>
                    </mxGeometry>
                </mxCell>
                <mxCell id="168" value="[ i &amp;gt;= 4]" style="edgeLabel;html=1;align=center;verticalAlign=middle;resizable=0;points=[];" vertex="1" connectable="0" parent="164">
                    <mxGeometry x="-0.8545" relative="1" as="geometry">
                        <mxPoint x="-2" y="-10" as="offset"/>
                    </mxGeometry>
                </mxCell>
                <mxCell id="155" value="" style="rhombus;whiteSpace=wrap;html=1;rounded=1;arcSize=10;dashed=0;" vertex="1" parent="1">
                    <mxGeometry x="681" y="795" width="80" height="80" as="geometry"/>
                </mxCell>
                <mxCell id="161" value="" style="ellipse;html=1;shape=endState;fillColor=#000000;strokeColor=#ff0000;" vertex="1" parent="1">
                    <mxGeometry x="581" y="1115" width="30" height="30" as="geometry"/>
                </mxCell>
                <mxCell id="167" value="" style="edgeStyle=none;html=1;" edge="1" parent="1" source="163" target="161">
                    <mxGeometry relative="1" as="geometry"/>
                </mxCell>
                <mxCell id="163" value="" style="rhombus;whiteSpace=wrap;html=1;rounded=1;arcSize=10;dashed=0;" vertex="1" parent="1">
                    <mxGeometry x="556" y="995" width="80" height="80" as="geometry"/>
                </mxCell>
                <mxCell id="53" value="Meet()" style="shape=folder;align=center;verticalAlign=middle;fontStyle=0;tabWidth=100;tabHeight=30;tabPosition=left;html=1;boundedLbl=1;labelInHeader=1;rounded=1;absoluteArcSize=1;arcSize=10;" vertex="1" parent="1">
                    <mxGeometry x="831" y="1055" width="570" height="1135" as="geometry"/>
                </mxCell>
                <mxCell id="72" style="edgeStyle=none;html=1;entryX=0.5;entryY=0;entryDx=0;entryDy=0;" edge="1" parent="1" target="71">
                    <mxGeometry relative="1" as="geometry">
                        <mxPoint x="916" y="1460" as="sourcePoint"/>
                    </mxGeometry>
                </mxCell>
                <mxCell id="84" style="edgeStyle=none;html=1;exitX=0.5;exitY=1;exitDx=0;exitDy=0;entryX=0.5;entryY=0;entryDx=0;entryDy=0;" edge="1" parent="1" source="62" target="83">
                    <mxGeometry relative="1" as="geometry"/>
                </mxCell>
                <mxCell id="62" value="" style="ellipse;fillColor=#000000;strokeColor=#FF0000;labelBorderColor=none;" vertex="1" parent="1">
                    <mxGeometry x="901" y="1100" width="30" height="30" as="geometry"/>
                </mxCell>
                <mxCell id="77" style="edgeStyle=none;html=1;exitX=0.5;exitY=1;exitDx=0;exitDy=0;" edge="1" parent="1" source="71" target="75">
                    <mxGeometry relative="1" as="geometry"/>
                </mxCell>
                <mxCell id="80" value="[Same alliance]" style="edgeLabel;html=1;align=center;verticalAlign=middle;resizable=0;points=[];" connectable="0" vertex="1" parent="77">
                    <mxGeometry x="-0.2498" y="2" relative="1" as="geometry">
                        <mxPoint x="83" y="-79" as="offset"/>
                    </mxGeometry>
                </mxCell>
                <mxCell id="78" style="edgeStyle=none;html=1;exitX=1;exitY=0.5;exitDx=0;exitDy=0;" edge="1" parent="1" source="71" target="74">
                    <mxGeometry relative="1" as="geometry"/>
                </mxCell>
                <mxCell id="79" value="[Is an ennemy]" style="edgeLabel;html=1;align=center;verticalAlign=middle;resizable=0;points=[];" connectable="0" vertex="1" parent="78">
                    <mxGeometry x="0.2472" y="3" relative="1" as="geometry">
                        <mxPoint x="-145" y="63" as="offset"/>
                    </mxGeometry>
                </mxCell>
                <mxCell id="71" value="" style="rhombus;whiteSpace=wrap;html=1;rounded=1;arcSize=10;dashed=0;" vertex="1" parent="1">
                    <mxGeometry x="876" y="1540" width="80" height="80" as="geometry"/>
                </mxCell>
                <mxCell id="114" style="edgeStyle=none;html=1;exitX=1;exitY=0.5;exitDx=0;exitDy=0;entryX=0;entryY=0.5;entryDx=0;entryDy=0;" edge="1" parent="1" source="74" target="113">
                    <mxGeometry relative="1" as="geometry"/>
                </mxCell>
                <mxCell id="74" value="Determine a random number of messages to exchange&lt;br&gt;" style="whiteSpace=wrap;html=1;rounded=1;arcSize=10;dashed=0;" vertex="1" parent="1">
                    <mxGeometry x="1061" y="1550" width="120" height="60" as="geometry"/>
                </mxCell>
                <mxCell id="75" value="Generate a random number and confront with the ennemy's number" style="whiteSpace=wrap;html=1;rounded=1;arcSize=10;dashed=0;" vertex="1" parent="1">
                    <mxGeometry x="856" y="1682.5" width="120" height="60" as="geometry"/>
                </mxCell>
                <mxCell id="179" value="" style="edgeStyle=none;html=1;" edge="1" parent="1" source="83" target="99">
                    <mxGeometry relative="1" as="geometry"/>
                </mxCell>
                <mxCell id="83" value="Meet an individual" style="whiteSpace=wrap;html=1;rounded=1;arcSize=10;dashed=0;" vertex="1" parent="1">
                    <mxGeometry x="856" y="1170" width="120" height="60" as="geometry"/>
                </mxCell>
                <mxCell id="95" style="edgeStyle=none;html=1;exitX=0.5;exitY=1;exitDx=0;exitDy=0;" edge="1" parent="1" source="99" target="101">
                    <mxGeometry relative="1" as="geometry"/>
                </mxCell>
                <mxCell id="96" value="[Different &lt;br&gt;population]" style="edgeLabel;html=1;align=center;verticalAlign=middle;resizable=0;points=[];" connectable="0" vertex="1" parent="95">
                    <mxGeometry x="-0.2498" y="2" relative="1" as="geometry">
                        <mxPoint x="-38" y="-10" as="offset"/>
                    </mxGeometry>
                </mxCell>
                <mxCell id="97" style="edgeStyle=none;html=1;exitX=1;exitY=0.5;exitDx=0;exitDy=0;" edge="1" parent="1" source="99" target="100">
                    <mxGeometry relative="1" as="geometry"/>
                </mxCell>
                <mxCell id="98" value="[Same population]" style="edgeLabel;html=1;align=center;verticalAlign=middle;resizable=0;points=[];" connectable="0" vertex="1" parent="97">
                    <mxGeometry x="0.2472" y="3" relative="1" as="geometry">
                        <mxPoint x="-20" y="-17" as="offset"/>
                    </mxGeometry>
                </mxCell>
                <mxCell id="99" value="" style="rhombus;whiteSpace=wrap;html=1;rounded=1;arcSize=10;dashed=0;" vertex="1" parent="1">
                    <mxGeometry x="876" y="1290" width="80" height="80" as="geometry"/>
                </mxCell>
                <mxCell id="195" style="edgeStyle=none;html=1;exitX=1;exitY=0.5;exitDx=0;exitDy=0;" edge="1" parent="1" source="100" target="191">
                    <mxGeometry relative="1" as="geometry">
                        <Array as="points">
                            <mxPoint x="1370" y="1330"/>
                            <mxPoint x="1370" y="2070"/>
                        </Array>
                    </mxGeometry>
                </mxCell>
                <mxCell id="100" value="Make union of all the knowledge" style="whiteSpace=wrap;html=1;rounded=1;arcSize=10;dashed=0;" vertex="1" parent="1">
                    <mxGeometry x="1061" y="1300" width="120" height="60" as="geometry"/>
                </mxCell>
                <mxCell id="101" value="Diferrent population" style="whiteSpace=wrap;html=1;rounded=1;arcSize=10;dashed=0;" vertex="1" parent="1">
                    <mxGeometry x="856" y="1420" width="120" height="60" as="geometry"/>
                </mxCell>
                <mxCell id="104" style="edgeStyle=none;html=1;entryX=0.5;entryY=0;entryDx=0;entryDy=0;exitX=0.5;exitY=1;exitDx=0;exitDy=0;" edge="1" parent="1" source="75" target="109">
                    <mxGeometry relative="1" as="geometry">
                        <mxPoint x="921" y="1750" as="sourcePoint"/>
                    </mxGeometry>
                </mxCell>
                <mxCell id="105" style="edgeStyle=none;html=1;exitX=0.5;exitY=1;exitDx=0;exitDy=0;" edge="1" parent="1" source="109">
                    <mxGeometry relative="1" as="geometry">
                        <mxPoint x="916" y="1940" as="targetPoint"/>
                    </mxGeometry>
                </mxCell>
                <mxCell id="111" value="[Lose the fight]" style="edgeLabel;html=1;align=center;verticalAlign=middle;resizable=0;points=[];" connectable="0" vertex="1" parent="105">
                    <mxGeometry x="0.4696" y="-1" relative="1" as="geometry">
                        <mxPoint x="41" y="-26" as="offset"/>
                    </mxGeometry>
                </mxCell>
                <mxCell id="107" style="edgeStyle=none;html=1;exitX=1;exitY=0.5;exitDx=0;exitDy=0;" edge="1" parent="1" source="109">
                    <mxGeometry relative="1" as="geometry">
                        <mxPoint x="1061" y="1850" as="targetPoint"/>
                    </mxGeometry>
                </mxCell>
                <mxCell id="110" value="[Win the fight]" style="edgeLabel;html=1;align=center;verticalAlign=middle;resizable=0;points=[];" connectable="0" vertex="1" parent="107">
                    <mxGeometry x="0.3107" y="-1" relative="1" as="geometry">
                        <mxPoint x="-34" y="-11" as="offset"/>
                    </mxGeometry>
                </mxCell>
                <mxCell id="109" value="" style="rhombus;whiteSpace=wrap;html=1;rounded=1;arcSize=10;dashed=0;" vertex="1" parent="1">
                    <mxGeometry x="876" y="1810" width="80" height="80" as="geometry"/>
                </mxCell>
                <mxCell id="182" value="" style="edgeStyle=none;html=1;" edge="1" parent="1" source="113" target="181">
                    <mxGeometry relative="1" as="geometry">
                        <Array as="points">
                            <mxPoint x="1280" y="1960"/>
                        </Array>
                    </mxGeometry>
                </mxCell>
                <mxCell id="113" value="Exchange with the ally" style="whiteSpace=wrap;html=1;rounded=1;arcSize=10;dashed=0;" vertex="1" parent="1">
                    <mxGeometry x="1220" y="1550" width="120" height="60" as="geometry"/>
                </mxCell>
                <mxCell id="119" style="edgeStyle=none;html=1;" edge="1" parent="1" source="116" target="118">
                    <mxGeometry relative="1" as="geometry"/>
                </mxCell>
                <mxCell id="116" value="Determine a random number of messages the winner does'nt have" style="whiteSpace=wrap;html=1;rounded=1;arcSize=10;dashed=0;" vertex="1" parent="1">
                    <mxGeometry x="856" y="1940" width="120" height="60" as="geometry"/>
                </mxCell>
                <mxCell id="183" value="" style="edgeStyle=none;html=1;" edge="1" parent="1" source="117" target="181">
                    <mxGeometry relative="1" as="geometry"/>
                </mxCell>
                <mxCell id="117" value="Receive the messages from the loser" style="whiteSpace=wrap;html=1;rounded=1;arcSize=10;dashed=0;" vertex="1" parent="1">
                    <mxGeometry x="1061" y="1820" width="120" height="60" as="geometry"/>
                </mxCell>
                <mxCell id="194" value="" style="edgeStyle=none;html=1;" edge="1" parent="1" source="118" target="191">
                    <mxGeometry relative="1" as="geometry"/>
                </mxCell>
                <mxCell id="118" value="Give the messages and lose them" style="whiteSpace=wrap;html=1;rounded=1;arcSize=10;dashed=0;" vertex="1" parent="1">
                    <mxGeometry x="856" y="2040" width="120" height="60" as="geometry"/>
                </mxCell>
                <mxCell id="175" value="" style="edgeStyle=none;html=1;" edge="1" parent="1" source="172" target="155">
                    <mxGeometry relative="1" as="geometry"/>
                </mxCell>
                <mxCell id="172" value="" style="rhombus;whiteSpace=wrap;html=1;rounded=1;arcSize=10;dashed=0;" vertex="1" parent="1">
                    <mxGeometry x="681" y="690" width="80" height="80" as="geometry"/>
                </mxCell>
                <mxCell id="176" value="" style="ellipse;html=1;shape=endState;fillColor=#000000;strokeColor=#ff0000;" vertex="1" parent="1">
                    <mxGeometry x="950.5" y="2240" width="30" height="30" as="geometry"/>
                </mxCell>
                <mxCell id="180" value="" style="ellipse;html=1;shape=endState;fillColor=#000000;strokeColor=#ff0000;" vertex="1" parent="1">
                    <mxGeometry x="1106" y="2150" width="30" height="30" as="geometry"/>
                </mxCell>
                <mxCell id="193" value="" style="edgeStyle=none;html=1;" edge="1" parent="1" source="181" target="191">
                    <mxGeometry relative="1" as="geometry"/>
                </mxCell>
                <mxCell id="181" value="" style="rhombus;whiteSpace=wrap;html=1;rounded=1;arcSize=10;dashed=0;" vertex="1" parent="1">
                    <mxGeometry x="1081" y="1920" width="80" height="80" as="geometry"/>
                </mxCell>
                <mxCell id="192" style="edgeStyle=none;html=1;exitX=0.5;exitY=1;exitDx=0;exitDy=0;entryX=0.5;entryY=0;entryDx=0;entryDy=0;" edge="1" parent="1" source="191" target="180">
                    <mxGeometry relative="1" as="geometry"/>
                </mxCell>
                <mxCell id="191" value="" style="rhombus;whiteSpace=wrap;html=1;rounded=1;arcSize=10;dashed=0;" vertex="1" parent="1">
                    <mxGeometry x="1081" y="2030" width="80" height="80" as="geometry"/>
                </mxCell>
            </root>
        </mxGraphModel>
    </diagram>
</mxfile>